{
	"asset":{
		"generator":"Khronos glTF Blender I/O v4.5.47",
		"version":"2.0"
	},
	"scene":0,
	"scenes":[
		{
			"name":"Scene",
			"nodes":[
				0
			]
		}
	],
	"nodes":[
		{
			"mesh":0,
			"name":"Cylinder",
			"rotation":[
				-0.7071068286895752,
				0,
				0,
				0.7071068286895752
			],
			"scale":[
				1,
				2.1441352367401123,
				1
			]
		}
	],
	"materials":[
		{
			"doubleSided":true,
			"name":"Material.001",
			"pbrMetallicRoughness":{
				"metallicFactor":0,
				"roughnessFactor":0.5
			}
		}
	],
	"meshes":[
		{
			"name":"Cylinder.001",
			"primitives":[
				{
					"attributes":{
						"POSITION":0,
						"NORMAL":1,
						"TEXCOORD_0":2,
						"COLOR_0":3
					},
					"indices":4,
					"material":0
				}
			]
		}
	],
	"accessors":[
		{
			"bufferView":0,
			"componentType":5126,
			"count":4460,
			"max":[
				1.152384638786316,
				8.641189575195312,
				1.107507586479187
			],
			"min":[
				-1,
				-0.3333171010017395,
				-2.1813771724700928
			],
			"type":"VEC3"
		},
		{
			"bufferView":1,
			"componentType":5126,
			"count":4460,
			"type":"VEC3"
		},
		{
			"bufferView":2,
			"componentType":5126,
			"count":4460,
			"type":"VEC2"
		},
		{
			"bufferView":3,
			"componentType":5126,
			"count":4460,
			"type":"VEC3"
		},
		{
			"bufferView":4,
			"componentType":5123,
			"count":7446,
			"type":"SCALAR"
		}
	],
	"bufferViews":[
		{
			"buffer":0,
			"byteLength":53520,
			"byteOffset":0,
			"target":34962
		},
		{
			"buffer":0,
			"byteLength":53520,
			"byteOffset":53520,
			"target":34962
		},
		{
			"buffer":0,
			"byteLength":35680,
			"byteOffset":107040,
			"target":34962
		},
		{
			"buffer":0,
			"byteLength":53520,
			"byteOffset":142720,
			"target":34962
		},
		{
			"buffer":0,
			"byteLength":14892,
			"byteOffset":196240,
			"target":34963
		}
	],
	"buffers":[
		{
			"byteLength":211132,
			"uri":"Gun.bin"
		}
	]
}
