{
	"asset":{
		"generator":"Khronos glTF Blender I/O v4.5.47",
		"version":"2.0"
	},
	"scene":0,
	"scenes":[
		{
			"name":"Scene",
			"nodes":[
				9
			]
		}
	],
	"nodes":[
		{
			"name":"Bone.003",
			"rotation":[
				-0.12694375216960907,
				-5.165208705193436e-08,
				0.020993473008275032,
				0.9916877150535583
			],
			"scale":[
				1,
				1.000000238418579,
				1
			],
			"translation":[
				-4.71482053399086e-09,
				0.5313863158226013,
				1.6583726392127573e-08
			]
		},
		{
			"children":[
				0
			],
			"name":"Bone.002",
			"rotation":[
				-0.07590510696172714,
				-1.6900273180908698e-08,
				0.006867113057523966,
				0.9970914125442505
			],
			"scale":[
				1,
				1,
				0.9999999403953552
			],
			"translation":[
				-1.7389538697898388e-09,
				0.7283216118812561,
				3.633613232523203e-08
			]
		},
		{
			"name":"Bone.005",
			"rotation":[
				0.01874312199652195,
				2.2757150830443607e-08,
				0.2733811140060425,
				0.9617232084274292
			],
			"scale":[
				0.9999999403953552,
				0.9999999403953552,
				0.9999999403953552
			],
			"translation":[
				2.394262992311269e-07,
				0.6865217685699463,
				1.5832483768463135e-08
			]
		},
		{
			"children":[
				2
			],
			"name":"Bone.004",
			"rotation":[
				-0.1315871775150299,
				-2.629819206845241e-08,
				-0.7082787752151489,
				0.6935604214668274
			],
			"scale":[
				1,
				0.9999999403953552,
				1
			],
			"translation":[
				-1.7389538697898388e-09,
				0.7283216118812561,
				3.633613232523203e-08
			]
		},
		{
			"name":"Bone.010",
			"rotation":[
				-0.063431516289711,
				-2.7737701913110868e-08,
				-0.3348627984523773,
				0.9401294589042664
			],
			"scale":[
				0.9999999403953552,
				1,
				0.9999999403953552
			],
			"translation":[
				-1.6763806343078613e-07,
				0.7774299383163452,
				-7.450580596923828e-09
			]
		},
		{
			"children":[
				4
			],
			"name":"Bone.009",
			"rotation":[
				-0.05262604355812073,
				-0.018259143456816673,
				0.7205032706260681,
				0.6912106275558472
			],
			"translation":[
				-1.7389538697898388e-09,
				0.7283216118812561,
				3.633613232523203e-08
			]
		},
		{
			"children":[
				1,
				3,
				5
			],
			"name":"Bone.001",
			"rotation":[
				0.093498595058918,
				0.0011023286497220397,
				0.013879094272851944,
				0.9955220818519592
			],
			"scale":[
				1,
				1,
				0.9999999403953552
			],
			"translation":[
				0,
				1.7182731628417969,
				0
			]
		},
		{
			"children":[
				6
			],
			"name":"Bone"
		},
		{
			"mesh":0,
			"name":"Cylinder.003",
			"skin":0
		},
		{
			"children":[
				8,
				7
			],
			"name":"Armature",
			"translation":[
				-0.02100721001625061,
				0.03943943977355957,
				0.03199435770511627
			]
		}
	],
	"animations":[
		{
			"channels":[
				{
					"sampler":0,
					"target":{
						"node":7,
						"path":"translation"
					}
				},
				{
					"sampler":1,
					"target":{
						"node":7,
						"path":"rotation"
					}
				},
				{
					"sampler":2,
					"target":{
						"node":7,
						"path":"scale"
					}
				},
				{
					"sampler":3,
					"target":{
						"node":6,
						"path":"translation"
					}
				},
				{
					"sampler":4,
					"target":{
						"node":6,
						"path":"rotation"
					}
				},
				{
					"sampler":5,
					"target":{
						"node":6,
						"path":"scale"
					}
				},
				{
					"sampler":6,
					"target":{
						"node":1,
						"path":"translation"
					}
				},
				{
					"sampler":7,
					"target":{
						"node":1,
						"path":"rotation"
					}
				},
				{
					"sampler":8,
					"target":{
						"node":1,
						"path":"scale"
					}
				},
				{
					"sampler":9,
					"target":{
						"node":0,
						"path":"translation"
					}
				},
				{
					"sampler":10,
					"target":{
						"node":0,
						"path":"rotation"
					}
				},
				{
					"sampler":11,
					"target":{
						"node":0,
						"path":"scale"
					}
				},
				{
					"sampler":12,
					"target":{
						"node":3,
						"path":"translation"
					}
				},
				{
					"sampler":13,
					"target":{
						"node":3,
						"path":"rotation"
					}
				},
				{
					"sampler":14,
					"target":{
						"node":3,
						"path":"scale"
					}
				},
				{
					"sampler":15,
					"target":{
						"node":2,
						"path":"translation"
					}
				},
				{
					"sampler":16,
					"target":{
						"node":2,
						"path":"rotation"
					}
				},
				{
					"sampler":17,
					"target":{
						"node":2,
						"path":"scale"
					}
				},
				{
					"sampler":18,
					"target":{
						"node":5,
						"path":"translation"
					}
				},
				{
					"sampler":19,
					"target":{
						"node":5,
						"path":"rotation"
					}
				},
				{
					"sampler":20,
					"target":{
						"node":5,
						"path":"scale"
					}
				},
				{
					"sampler":21,
					"target":{
						"node":4,
						"path":"translation"
					}
				},
				{
					"sampler":22,
					"target":{
						"node":4,
						"path":"rotation"
					}
				},
				{
					"sampler":23,
					"target":{
						"node":4,
						"path":"scale"
					}
				}
			],
			"name":"Action",
			"samplers":[
				{
					"input":8,
					"interpolation":"LINEAR",
					"output":9
				},
				{
					"input":10,
					"interpolation":"STEP",
					"output":11
				},
				{
					"input":10,
					"interpolation":"STEP",
					"output":12
				},
				{
					"input":10,
					"interpolation":"STEP",
					"output":13
				},
				{
					"input":10,
					"interpolation":"STEP",
					"output":14
				},
				{
					"input":10,
					"interpolation":"STEP",
					"output":15
				},
				{
					"input":10,
					"interpolation":"STEP",
					"output":16
				},
				{
					"input":10,
					"interpolation":"STEP",
					"output":17
				},
				{
					"input":10,
					"interpolation":"STEP",
					"output":18
				},
				{
					"input":10,
					"interpolation":"STEP",
					"output":19
				},
				{
					"input":10,
					"interpolation":"STEP",
					"output":20
				},
				{
					"input":10,
					"interpolation":"STEP",
					"output":21
				},
				{
					"input":10,
					"interpolation":"STEP",
					"output":22
				},
				{
					"input":10,
					"interpolation":"STEP",
					"output":23
				},
				{
					"input":10,
					"interpolation":"STEP",
					"output":24
				},
				{
					"input":10,
					"interpolation":"STEP",
					"output":25
				},
				{
					"input":10,
					"interpolation":"STEP",
					"output":26
				},
				{
					"input":10,
					"interpolation":"STEP",
					"output":27
				},
				{
					"input":10,
					"interpolation":"STEP",
					"output":28
				},
				{
					"input":10,
					"interpolation":"STEP",
					"output":29
				},
				{
					"input":10,
					"interpolation":"STEP",
					"output":18
				},
				{
					"input":10,
					"interpolation":"STEP",
					"output":30
				},
				{
					"input":10,
					"interpolation":"STEP",
					"output":31
				},
				{
					"input":10,
					"interpolation":"STEP",
					"output":32
				}
			]
		},
		{
			"channels":[
				{
					"sampler":0,
					"target":{
						"node":7,
						"path":"translation"
					}
				},
				{
					"sampler":1,
					"target":{
						"node":7,
						"path":"rotation"
					}
				},
				{
					"sampler":2,
					"target":{
						"node":7,
						"path":"scale"
					}
				},
				{
					"sampler":3,
					"target":{
						"node":6,
						"path":"translation"
					}
				},
				{
					"sampler":4,
					"target":{
						"node":6,
						"path":"rotation"
					}
				},
				{
					"sampler":5,
					"target":{
						"node":6,
						"path":"scale"
					}
				},
				{
					"sampler":6,
					"target":{
						"node":1,
						"path":"translation"
					}
				},
				{
					"sampler":7,
					"target":{
						"node":1,
						"path":"rotation"
					}
				},
				{
					"sampler":8,
					"target":{
						"node":1,
						"path":"scale"
					}
				},
				{
					"sampler":9,
					"target":{
						"node":0,
						"path":"translation"
					}
				},
				{
					"sampler":10,
					"target":{
						"node":0,
						"path":"rotation"
					}
				},
				{
					"sampler":11,
					"target":{
						"node":0,
						"path":"scale"
					}
				},
				{
					"sampler":12,
					"target":{
						"node":3,
						"path":"translation"
					}
				},
				{
					"sampler":13,
					"target":{
						"node":3,
						"path":"rotation"
					}
				},
				{
					"sampler":14,
					"target":{
						"node":3,
						"path":"scale"
					}
				},
				{
					"sampler":15,
					"target":{
						"node":2,
						"path":"translation"
					}
				},
				{
					"sampler":16,
					"target":{
						"node":2,
						"path":"rotation"
					}
				},
				{
					"sampler":17,
					"target":{
						"node":2,
						"path":"scale"
					}
				},
				{
					"sampler":18,
					"target":{
						"node":5,
						"path":"translation"
					}
				},
				{
					"sampler":19,
					"target":{
						"node":5,
						"path":"rotation"
					}
				},
				{
					"sampler":20,
					"target":{
						"node":5,
						"path":"scale"
					}
				},
				{
					"sampler":21,
					"target":{
						"node":4,
						"path":"translation"
					}
				},
				{
					"sampler":22,
					"target":{
						"node":4,
						"path":"rotation"
					}
				},
				{
					"sampler":23,
					"target":{
						"node":4,
						"path":"scale"
					}
				}
			],
			"name":"head",
			"samplers":[
				{
					"input":33,
					"interpolation":"STEP",
					"output":34
				},
				{
					"input":33,
					"interpolation":"STEP",
					"output":11
				},
				{
					"input":33,
					"interpolation":"STEP",
					"output":12
				},
				{
					"input":33,
					"interpolation":"STEP",
					"output":13
				},
				{
					"input":33,
					"interpolation":"STEP",
					"output":14
				},
				{
					"input":33,
					"interpolation":"STEP",
					"output":15
				},
				{
					"input":33,
					"interpolation":"STEP",
					"output":35
				},
				{
					"input":33,
					"interpolation":"STEP",
					"output":17
				},
				{
					"input":33,
					"interpolation":"STEP",
					"output":18
				},
				{
					"input":33,
					"interpolation":"STEP",
					"output":36
				},
				{
					"input":37,
					"interpolation":"LINEAR",
					"output":38
				},
				{
					"input":33,
					"interpolation":"STEP",
					"output":21
				},
				{
					"input":33,
					"interpolation":"STEP",
					"output":39
				},
				{
					"input":33,
					"interpolation":"STEP",
					"output":23
				},
				{
					"input":33,
					"interpolation":"STEP",
					"output":24
				},
				{
					"input":33,
					"interpolation":"STEP",
					"output":40
				},
				{
					"input":33,
					"interpolation":"STEP",
					"output":26
				},
				{
					"input":33,
					"interpolation":"STEP",
					"output":27
				},
				{
					"input":33,
					"interpolation":"STEP",
					"output":41
				},
				{
					"input":33,
					"interpolation":"STEP",
					"output":29
				},
				{
					"input":33,
					"interpolation":"STEP",
					"output":18
				},
				{
					"input":33,
					"interpolation":"STEP",
					"output":42
				},
				{
					"input":33,
					"interpolation":"STEP",
					"output":31
				},
				{
					"input":33,
					"interpolation":"STEP",
					"output":32
				}
			]
		},
		{
			"channels":[
				{
					"sampler":0,
					"target":{
						"node":7,
						"path":"translation"
					}
				},
				{
					"sampler":1,
					"target":{
						"node":7,
						"path":"rotation"
					}
				},
				{
					"sampler":2,
					"target":{
						"node":7,
						"path":"scale"
					}
				},
				{
					"sampler":3,
					"target":{
						"node":6,
						"path":"translation"
					}
				},
				{
					"sampler":4,
					"target":{
						"node":6,
						"path":"rotation"
					}
				},
				{
					"sampler":5,
					"target":{
						"node":6,
						"path":"scale"
					}
				},
				{
					"sampler":6,
					"target":{
						"node":1,
						"path":"translation"
					}
				},
				{
					"sampler":7,
					"target":{
						"node":1,
						"path":"rotation"
					}
				},
				{
					"sampler":8,
					"target":{
						"node":1,
						"path":"scale"
					}
				},
				{
					"sampler":9,
					"target":{
						"node":0,
						"path":"translation"
					}
				},
				{
					"sampler":10,
					"target":{
						"node":0,
						"path":"rotation"
					}
				},
				{
					"sampler":11,
					"target":{
						"node":0,
						"path":"scale"
					}
				},
				{
					"sampler":12,
					"target":{
						"node":3,
						"path":"translation"
					}
				},
				{
					"sampler":13,
					"target":{
						"node":3,
						"path":"rotation"
					}
				},
				{
					"sampler":14,
					"target":{
						"node":3,
						"path":"scale"
					}
				},
				{
					"sampler":15,
					"target":{
						"node":2,
						"path":"translation"
					}
				},
				{
					"sampler":16,
					"target":{
						"node":2,
						"path":"rotation"
					}
				},
				{
					"sampler":17,
					"target":{
						"node":2,
						"path":"scale"
					}
				},
				{
					"sampler":18,
					"target":{
						"node":5,
						"path":"translation"
					}
				},
				{
					"sampler":19,
					"target":{
						"node":5,
						"path":"rotation"
					}
				},
				{
					"sampler":20,
					"target":{
						"node":5,
						"path":"scale"
					}
				},
				{
					"sampler":21,
					"target":{
						"node":4,
						"path":"translation"
					}
				},
				{
					"sampler":22,
					"target":{
						"node":4,
						"path":"rotation"
					}
				},
				{
					"sampler":23,
					"target":{
						"node":4,
						"path":"scale"
					}
				}
			],
			"name":"jump",
			"samplers":[
				{
					"input":8,
					"interpolation":"LINEAR",
					"output":9
				},
				{
					"input":10,
					"interpolation":"STEP",
					"output":11
				},
				{
					"input":10,
					"interpolation":"STEP",
					"output":12
				},
				{
					"input":10,
					"interpolation":"STEP",
					"output":13
				},
				{
					"input":10,
					"interpolation":"STEP",
					"output":14
				},
				{
					"input":10,
					"interpolation":"STEP",
					"output":15
				},
				{
					"input":10,
					"interpolation":"STEP",
					"output":16
				},
				{
					"input":10,
					"interpolation":"STEP",
					"output":17
				},
				{
					"input":10,
					"interpolation":"STEP",
					"output":18
				},
				{
					"input":10,
					"interpolation":"STEP",
					"output":19
				},
				{
					"input":10,
					"interpolation":"STEP",
					"output":20
				},
				{
					"input":10,
					"interpolation":"STEP",
					"output":21
				},
				{
					"input":10,
					"interpolation":"STEP",
					"output":22
				},
				{
					"input":10,
					"interpolation":"STEP",
					"output":23
				},
				{
					"input":10,
					"interpolation":"STEP",
					"output":24
				},
				{
					"input":10,
					"interpolation":"STEP",
					"output":25
				},
				{
					"input":10,
					"interpolation":"STEP",
					"output":26
				},
				{
					"input":10,
					"interpolation":"STEP",
					"output":27
				},
				{
					"input":10,
					"interpolation":"STEP",
					"output":28
				},
				{
					"input":10,
					"interpolation":"STEP",
					"output":29
				},
				{
					"input":10,
					"interpolation":"STEP",
					"output":18
				},
				{
					"input":10,
					"interpolation":"STEP",
					"output":30
				},
				{
					"input":10,
					"interpolation":"STEP",
					"output":31
				},
				{
					"input":10,
					"interpolation":"STEP",
					"output":32
				}
			]
		}
	],
	"materials":[
		{
			"doubleSided":true,
			"name":"carrot",
			"pbrMetallicRoughness":{
				"metallicFactor":0,
				"roughnessFactor":0.5
			}
		}
	],
	"meshes":[
		{
			"name":"Mesh",
			"primitives":[
				{
					"attributes":{
						"POSITION":0,
						"NORMAL":1,
						"TEXCOORD_0":2,
						"COLOR_0":3,
						"JOINTS_0":4,
						"WEIGHTS_0":5
					},
					"indices":6,
					"material":0
				}
			]
		}
	],
	"skins":[
		{
			"inverseBindMatrices":7,
			"joints":[
				7,
				6,
				1,
				0,
				3,
				2,
				5,
				4
			],
			"name":"Armature"
		}
	],
	"accessors":[
		{
			"bufferView":0,
			"componentType":5126,
			"count":45764,
			"max":[
				1.2089952230453491,
				4.015948295593262,
				1.1403728723526
			],
			"min":[
				-1.4142234325408936,
				-0.04342810437083244,
				-1.1016919612884521
			],
			"type":"VEC3"
		},
		{
			"bufferView":1,
			"componentType":5126,
			"count":45764,
			"type":"VEC3"
		},
		{
			"bufferView":2,
			"componentType":5126,
			"count":45764,
			"type":"VEC2"
		},
		{
			"bufferView":3,
			"componentType":5126,
			"count":45764,
			"type":"VEC3"
		},
		{
			"bufferView":4,
			"componentType":5121,
			"count":45764,
			"type":"VEC4"
		},
		{
			"bufferView":5,
			"componentType":5126,
			"count":45764,
			"type":"VEC4"
		},
		{
			"bufferView":6,
			"componentType":5123,
			"count":89088,
			"type":"SCALAR"
		},
		{
			"bufferView":7,
			"componentType":5126,
			"count":8,
			"type":"MAT4"
		},
		{
			"bufferView":8,
			"componentType":5126,
			"count":41,
			"max":[
				1.6666666666666667
			],
			"min":[
				0
			],
			"type":"SCALAR"
		},
		{
			"bufferView":9,
			"componentType":5126,
			"count":41,
			"type":"VEC3"
		},
		{
			"bufferView":10,
			"componentType":5126,
			"count":2,
			"max":[
				1.6666666666666667
			],
			"min":[
				0
			],
			"type":"SCALAR"
		},
		{
			"bufferView":11,
			"componentType":5126,
			"count":2,
			"type":"VEC4"
		},
		{
			"bufferView":12,
			"componentType":5126,
			"count":2,
			"type":"VEC3"
		},
		{
			"bufferView":13,
			"componentType":5126,
			"count":2,
			"type":"VEC3"
		},
		{
			"bufferView":14,
			"componentType":5126,
			"count":2,
			"type":"VEC4"
		},
		{
			"bufferView":15,
			"componentType":5126,
			"count":2,
			"type":"VEC3"
		},
		{
			"bufferView":16,
			"componentType":5126,
			"count":2,
			"type":"VEC3"
		},
		{
			"bufferView":17,
			"componentType":5126,
			"count":2,
			"type":"VEC4"
		},
		{
			"bufferView":18,
			"componentType":5126,
			"count":2,
			"type":"VEC3"
		},
		{
			"bufferView":19,
			"componentType":5126,
			"count":2,
			"type":"VEC3"
		},
		{
			"bufferView":20,
			"componentType":5126,
			"count":2,
			"type":"VEC4"
		},
		{
			"bufferView":21,
			"componentType":5126,
			"count":2,
			"type":"VEC3"
		},
		{
			"bufferView":22,
			"componentType":5126,
			"count":2,
			"type":"VEC3"
		},
		{
			"bufferView":23,
			"componentType":5126,
			"count":2,
			"type":"VEC4"
		},
		{
			"bufferView":24,
			"componentType":5126,
			"count":2,
			"type":"VEC3"
		},
		{
			"bufferView":25,
			"componentType":5126,
			"count":2,
			"type":"VEC3"
		},
		{
			"bufferView":26,
			"componentType":5126,
			"count":2,
			"type":"VEC4"
		},
		{
			"bufferView":27,
			"componentType":5126,
			"count":2,
			"type":"VEC3"
		},
		{
			"bufferView":28,
			"componentType":5126,
			"count":2,
			"type":"VEC3"
		},
		{
			"bufferView":29,
			"componentType":5126,
			"count":2,
			"type":"VEC4"
		},
		{
			"bufferView":30,
			"componentType":5126,
			"count":2,
			"type":"VEC3"
		},
		{
			"bufferView":31,
			"componentType":5126,
			"count":2,
			"type":"VEC4"
		},
		{
			"bufferView":32,
			"componentType":5126,
			"count":2,
			"type":"VEC3"
		},
		{
			"bufferView":33,
			"componentType":5126,
			"count":2,
			"max":[
				3.3333333333333335
			],
			"min":[
				0
			],
			"type":"SCALAR"
		},
		{
			"bufferView":34,
			"componentType":5126,
			"count":2,
			"type":"VEC3"
		},
		{
			"bufferView":35,
			"componentType":5126,
			"count":2,
			"type":"VEC3"
		},
		{
			"bufferView":36,
			"componentType":5126,
			"count":2,
			"type":"VEC3"
		},
		{
			"bufferView":37,
			"componentType":5126,
			"count":81,
			"max":[
				3.3333333333333335
			],
			"min":[
				0
			],
			"type":"SCALAR"
		},
		{
			"bufferView":38,
			"componentType":5126,
			"count":81,
			"type":"VEC4"
		},
		{
			"bufferView":39,
			"componentType":5126,
			"count":2,
			"type":"VEC3"
		},
		{
			"bufferView":40,
			"componentType":5126,
			"count":2,
			"type":"VEC3"
		},
		{
			"bufferView":41,
			"componentType":5126,
			"count":2,
			"type":"VEC3"
		},
		{
			"bufferView":42,
			"componentType":5126,
			"count":2,
			"type":"VEC3"
		}
	],
	"bufferViews":[
		{
			"buffer":0,
			"byteLength":549168,
			"byteOffset":0,
			"target":34962
		},
		{
			"buffer":0,
			"byteLength":549168,
			"byteOffset":549168,
			"target":34962
		},
		{
			"buffer":0,
			"byteLength":366112,
			"byteOffset":1098336,
			"target":34962
		},
		{
			"buffer":0,
			"byteLength":549168,
			"byteOffset":1464448,
			"target":34962
		},
		{
			"buffer":0,
			"byteLength":183056,
			"byteOffset":2013616,
			"target":34962
		},
		{
			"buffer":0,
			"byteLength":732224,
			"byteOffset":2196672,
			"target":34962
		},
		{
			"buffer":0,
			"byteLength":178176,
			"byteOffset":2928896,
			"target":34963
		},
		{
			"buffer":0,
			"byteLength":512,
			"byteOffset":3107072
		},
		{
			"buffer":0,
			"byteLength":164,
			"byteOffset":3107584
		},
		{
			"buffer":0,
			"byteLength":492,
			"byteOffset":3107748
		},
		{
			"buffer":0,
			"byteLength":8,
			"byteOffset":3108240
		},
		{
			"buffer":0,
			"byteLength":32,
			"byteOffset":3108248
		},
		{
			"buffer":0,
			"byteLength":24,
			"byteOffset":3108280
		},
		{
			"buffer":0,
			"byteLength":24,
			"byteOffset":3108304
		},
		{
			"buffer":0,
			"byteLength":32,
			"byteOffset":3108328
		},
		{
			"buffer":0,
			"byteLength":24,
			"byteOffset":3108360
		},
		{
			"buffer":0,
			"byteLength":24,
			"byteOffset":3108384
		},
		{
			"buffer":0,
			"byteLength":32,
			"byteOffset":3108408
		},
		{
			"buffer":0,
			"byteLength":24,
			"byteOffset":3108440
		},
		{
			"buffer":0,
			"byteLength":24,
			"byteOffset":3108464
		},
		{
			"buffer":0,
			"byteLength":32,
			"byteOffset":3108488
		},
		{
			"buffer":0,
			"byteLength":24,
			"byteOffset":3108520
		},
		{
			"buffer":0,
			"byteLength":24,
			"byteOffset":3108544
		},
		{
			"buffer":0,
			"byteLength":32,
			"byteOffset":3108568
		},
		{
			"buffer":0,
			"byteLength":24,
			"byteOffset":3108600
		},
		{
			"buffer":0,
			"byteLength":24,
			"byteOffset":3108624
		},
		{
			"buffer":0,
			"byteLength":32,
			"byteOffset":3108648
		},
		{
			"buffer":0,
			"byteLength":24,
			"byteOffset":3108680
		},
		{
			"buffer":0,
			"byteLength":24,
			"byteOffset":3108704
		},
		{
			"buffer":0,
			"byteLength":32,
			"byteOffset":3108728
		},
		{
			"buffer":0,
			"byteLength":24,
			"byteOffset":3108760
		},
		{
			"buffer":0,
			"byteLength":32,
			"byteOffset":3108784
		},
		{
			"buffer":0,
			"byteLength":24,
			"byteOffset":3108816
		},
		{
			"buffer":0,
			"byteLength":8,
			"byteOffset":3108840
		},
		{
			"buffer":0,
			"byteLength":24,
			"byteOffset":3108848
		},
		{
			"buffer":0,
			"byteLength":24,
			"byteOffset":3108872
		},
		{
			"buffer":0,
			"byteLength":24,
			"byteOffset":3108896
		},
		{
			"buffer":0,
			"byteLength":324,
			"byteOffset":3108920
		},
		{
			"buffer":0,
			"byteLength":1296,
			"byteOffset":3109244
		},
		{
			"buffer":0,
			"byteLength":24,
			"byteOffset":3110540
		},
		{
			"buffer":0,
			"byteLength":24,
			"byteOffset":3110564
		},
		{
			"buffer":0,
			"byteLength":24,
			"byteOffset":3110588
		},
		{
			"buffer":0,
			"byteLength":24,
			"byteOffset":3110612
		}
	],
	"buffers":[
		{
			"byteLength":3110636,
			"uri":"snowman.bin"
		}
	]
}
