{
	"asset":{
		"generator":"Khronos glTF Blender I/O v4.5.47",
		"version":"2.0"
	},
	"scene":0,
	"scenes":[
		{
			"name":"Scene",
			"nodes":[
				14
			]
		}
	],
	"nodes":[
		{
			"name":"Bone.001",
			"rotation":[
				-1.7238766858440613e-08,
				0.024248728528618813,
				-4.138999898373186e-08,
				0.999705970287323
			],
			"scale":[
				0.9999999403953552,
				1,
				0.9999999403953552
			],
			"translation":[
				-1.5550124743413107e-08,
				2.499999523162842,
				3.4645111668396567e-08
			]
		},
		{
			"children":[
				0
			],
			"name":"Bone",
			"rotation":[
				-0.2997117042541504,
				0.479762464761734,
				-0.17861157655715942,
				0.8050458431243896
			],
			"scale":[
				1,
				1,
				1.0000001192092896
			],
			"translation":[
				-5.684341886080802e-14,
				3.0583584308624268,
				2.384185791015625e-07
			]
		},
		{
			"children":[
				1
			],
			"name":"Bone.004",
			"rotation":[
				0.3488970696926117,
				0,
				8.31835436088113e-08,
				0.9371610879898071
			],
			"translation":[
				0,
				5.186224460601807,
				0
			]
		},
		{
			"name":"Bone.003",
			"rotation":[
				1.2339046229215e-08,
				-0.1250096708536148,
				-8.354192004844663e-09,
				0.9921555519104004
			],
			"translation":[
				1.912771097067889e-08,
				2.499999761581421,
				3.948967730593722e-08
			]
		},
		{
			"children":[
				3
			],
			"name":"Bone.002",
			"rotation":[
				0.08120794594287872,
				0.911422073841095,
				0.33931463956832886,
				0.218129962682724
			],
			"scale":[
				1,
				1.000000238418579,
				1.0000001192092896
			],
			"translation":[
				0,
				3.0583584308624268,
				-2.384185791015625e-07
			]
		},
		{
			"children":[
				4
			],
			"name":"Bone.005",
			"rotation":[
				-0.3488970696926117,
				-1.1171828617762003e-07,
				-4.159177180440565e-08,
				0.9371610879898071
			],
			"translation":[
				0,
				5.186224460601807,
				0
			]
		},
		{
			"name":"Bone.009",
			"rotation":[
				-2.1462267280196672e-23,
				0,
				0,
				1
			],
			"translation":[
				0,
				3,
				0
			]
		},
		{
			"children":[
				6
			],
			"name":"Bone.008",
			"rotation":[
				0.7071067690849304,
				1.3655579095939174e-05,
				1.382416576234391e-05,
				0.7071067690849304
			]
		},
		{
			"name":"Bone.011",
			"rotation":[
				3.3279643503192347e-06,
				-6.039440631866455e-05,
				2.5683505100460025e-07,
				1
			],
			"translation":[
				0,
				3,
				0
			]
		},
		{
			"children":[
				8
			],
			"name":"Bone.010",
			"rotation":[
				-0.027246134355664253,
				-0.7065816521644592,
				0.706581711769104,
				0.027245964854955673
			]
		},
		{
			"name":"Bone.012",
			"rotation":[
				0,
				-0.4232373535633087,
				0,
				0.906018853187561
			],
			"translation":[
				0,
				1.25,
				0
			]
		},
		{
			"children":[
				10
			],
			"name":"Bone.007",
			"rotation":[
				0.8668476939201355,
				0,
				0.49857306480407715,
				0
			]
		},
		{
			"children":[
				2,
				5,
				7,
				9,
				11
			],
			"name":"Bone.006",
			"rotation":[
				1,
				0,
				1.1920928955078125e-07,
				0
			],
			"translation":[
				0,
				13,
				0
			]
		},
		{
			"mesh":0,
			"name":"Cube",
			"skin":0
		},
		{
			"children":[
				13,
				12
			],
			"name":"Armature"
		}
	],
	"animations":[
		{
			"channels":[
				{
					"sampler":0,
					"target":{
						"node":12,
						"path":"translation"
					}
				},
				{
					"sampler":1,
					"target":{
						"node":12,
						"path":"rotation"
					}
				},
				{
					"sampler":2,
					"target":{
						"node":12,
						"path":"scale"
					}
				},
				{
					"sampler":3,
					"target":{
						"node":2,
						"path":"translation"
					}
				},
				{
					"sampler":4,
					"target":{
						"node":2,
						"path":"rotation"
					}
				},
				{
					"sampler":5,
					"target":{
						"node":2,
						"path":"scale"
					}
				},
				{
					"sampler":6,
					"target":{
						"node":1,
						"path":"translation"
					}
				},
				{
					"sampler":7,
					"target":{
						"node":1,
						"path":"rotation"
					}
				},
				{
					"sampler":8,
					"target":{
						"node":1,
						"path":"scale"
					}
				},
				{
					"sampler":9,
					"target":{
						"node":0,
						"path":"translation"
					}
				},
				{
					"sampler":10,
					"target":{
						"node":0,
						"path":"rotation"
					}
				},
				{
					"sampler":11,
					"target":{
						"node":0,
						"path":"scale"
					}
				},
				{
					"sampler":12,
					"target":{
						"node":5,
						"path":"translation"
					}
				},
				{
					"sampler":13,
					"target":{
						"node":5,
						"path":"rotation"
					}
				},
				{
					"sampler":14,
					"target":{
						"node":5,
						"path":"scale"
					}
				},
				{
					"sampler":15,
					"target":{
						"node":4,
						"path":"translation"
					}
				},
				{
					"sampler":16,
					"target":{
						"node":4,
						"path":"rotation"
					}
				},
				{
					"sampler":17,
					"target":{
						"node":4,
						"path":"scale"
					}
				},
				{
					"sampler":18,
					"target":{
						"node":3,
						"path":"translation"
					}
				},
				{
					"sampler":19,
					"target":{
						"node":3,
						"path":"rotation"
					}
				},
				{
					"sampler":20,
					"target":{
						"node":3,
						"path":"scale"
					}
				},
				{
					"sampler":21,
					"target":{
						"node":7,
						"path":"translation"
					}
				},
				{
					"sampler":22,
					"target":{
						"node":7,
						"path":"rotation"
					}
				},
				{
					"sampler":23,
					"target":{
						"node":7,
						"path":"scale"
					}
				},
				{
					"sampler":24,
					"target":{
						"node":6,
						"path":"translation"
					}
				},
				{
					"sampler":25,
					"target":{
						"node":6,
						"path":"rotation"
					}
				},
				{
					"sampler":26,
					"target":{
						"node":6,
						"path":"scale"
					}
				},
				{
					"sampler":27,
					"target":{
						"node":9,
						"path":"translation"
					}
				},
				{
					"sampler":28,
					"target":{
						"node":9,
						"path":"rotation"
					}
				},
				{
					"sampler":29,
					"target":{
						"node":9,
						"path":"scale"
					}
				},
				{
					"sampler":30,
					"target":{
						"node":8,
						"path":"translation"
					}
				},
				{
					"sampler":31,
					"target":{
						"node":8,
						"path":"rotation"
					}
				},
				{
					"sampler":32,
					"target":{
						"node":8,
						"path":"scale"
					}
				},
				{
					"sampler":33,
					"target":{
						"node":11,
						"path":"translation"
					}
				},
				{
					"sampler":34,
					"target":{
						"node":11,
						"path":"rotation"
					}
				},
				{
					"sampler":35,
					"target":{
						"node":11,
						"path":"scale"
					}
				},
				{
					"sampler":36,
					"target":{
						"node":10,
						"path":"translation"
					}
				},
				{
					"sampler":37,
					"target":{
						"node":10,
						"path":"rotation"
					}
				},
				{
					"sampler":38,
					"target":{
						"node":10,
						"path":"scale"
					}
				}
			],
			"name":"ArmatureAction",
			"samplers":[
				{
					"input":8,
					"interpolation":"LINEAR",
					"output":9
				},
				{
					"input":10,
					"interpolation":"STEP",
					"output":11
				},
				{
					"input":10,
					"interpolation":"STEP",
					"output":12
				},
				{
					"input":10,
					"interpolation":"STEP",
					"output":13
				},
				{
					"input":10,
					"interpolation":"STEP",
					"output":14
				},
				{
					"input":10,
					"interpolation":"STEP",
					"output":12
				},
				{
					"input":10,
					"interpolation":"STEP",
					"output":15
				},
				{
					"input":8,
					"interpolation":"LINEAR",
					"output":16
				},
				{
					"input":10,
					"interpolation":"STEP",
					"output":17
				},
				{
					"input":10,
					"interpolation":"STEP",
					"output":18
				},
				{
					"input":10,
					"interpolation":"STEP",
					"output":19
				},
				{
					"input":10,
					"interpolation":"STEP",
					"output":20
				},
				{
					"input":10,
					"interpolation":"STEP",
					"output":21
				},
				{
					"input":10,
					"interpolation":"STEP",
					"output":22
				},
				{
					"input":10,
					"interpolation":"STEP",
					"output":12
				},
				{
					"input":10,
					"interpolation":"STEP",
					"output":23
				},
				{
					"input":8,
					"interpolation":"LINEAR",
					"output":24
				},
				{
					"input":10,
					"interpolation":"STEP",
					"output":25
				},
				{
					"input":10,
					"interpolation":"STEP",
					"output":26
				},
				{
					"input":10,
					"interpolation":"STEP",
					"output":27
				},
				{
					"input":10,
					"interpolation":"STEP",
					"output":12
				},
				{
					"input":10,
					"interpolation":"STEP",
					"output":28
				},
				{
					"input":10,
					"interpolation":"STEP",
					"output":29
				},
				{
					"input":10,
					"interpolation":"STEP",
					"output":12
				},
				{
					"input":10,
					"interpolation":"STEP",
					"output":30
				},
				{
					"input":8,
					"interpolation":"LINEAR",
					"output":31
				},
				{
					"input":10,
					"interpolation":"STEP",
					"output":32
				},
				{
					"input":10,
					"interpolation":"STEP",
					"output":28
				},
				{
					"input":10,
					"interpolation":"STEP",
					"output":33
				},
				{
					"input":10,
					"interpolation":"STEP",
					"output":12
				},
				{
					"input":10,
					"interpolation":"STEP",
					"output":34
				},
				{
					"input":8,
					"interpolation":"LINEAR",
					"output":35
				},
				{
					"input":10,
					"interpolation":"STEP",
					"output":12
				},
				{
					"input":10,
					"interpolation":"STEP",
					"output":28
				},
				{
					"input":10,
					"interpolation":"STEP",
					"output":36
				},
				{
					"input":10,
					"interpolation":"STEP",
					"output":12
				},
				{
					"input":10,
					"interpolation":"STEP",
					"output":37
				},
				{
					"input":10,
					"interpolation":"STEP",
					"output":38
				},
				{
					"input":10,
					"interpolation":"STEP",
					"output":12
				}
			]
		}
	],
	"materials":[
		{
			"doubleSided":true,
			"name":"Material",
			"pbrMetallicRoughness":{
				"metallicFactor":0,
				"roughnessFactor":0.5
			}
		}
	],
	"meshes":[
		{
			"name":"Cube",
			"primitives":[
				{
					"attributes":{
						"POSITION":0,
						"NORMAL":1,
						"TEXCOORD_0":2,
						"COLOR_0":3,
						"JOINTS_0":4,
						"WEIGHTS_0":5
					},
					"indices":6,
					"material":0
				}
			]
		}
	],
	"skins":[
		{
			"inverseBindMatrices":7,
			"joints":[
				12,
				2,
				1,
				0,
				5,
				4,
				3,
				7,
				6,
				9,
				8,
				11,
				10
			],
			"name":"Armature"
		}
	],
	"accessors":[
		{
			"bufferView":0,
			"componentType":5126,
			"count":137,
			"max":[
				2.0593156814575195,
				17.34276008605957,
				7.895522594451904
			],
			"min":[
				-2.0294647216796875,
				0,
				-8.104477882385254
			],
			"type":"VEC3"
		},
		{
			"bufferView":1,
			"componentType":5126,
			"count":137,
			"type":"VEC3"
		},
		{
			"bufferView":2,
			"componentType":5126,
			"count":137,
			"type":"VEC2"
		},
		{
			"bufferView":3,
			"componentType":5126,
			"count":137,
			"type":"VEC3"
		},
		{
			"bufferView":4,
			"componentType":5121,
			"count":137,
			"type":"VEC4"
		},
		{
			"bufferView":5,
			"componentType":5126,
			"count":137,
			"type":"VEC4"
		},
		{
			"bufferView":6,
			"componentType":5123,
			"count":312,
			"type":"SCALAR"
		},
		{
			"bufferView":7,
			"componentType":5126,
			"count":13,
			"type":"MAT4"
		},
		{
			"bufferView":8,
			"componentType":5126,
			"count":39,
			"max":[
				1.6666666666666667
			],
			"min":[
				0.08333333333333333
			],
			"type":"SCALAR"
		},
		{
			"bufferView":9,
			"componentType":5126,
			"count":39,
			"type":"VEC3"
		},
		{
			"bufferView":10,
			"componentType":5126,
			"count":2,
			"max":[
				1.6666666666666667
			],
			"min":[
				0.08333333333333333
			],
			"type":"SCALAR"
		},
		{
			"bufferView":11,
			"componentType":5126,
			"count":2,
			"type":"VEC4"
		},
		{
			"bufferView":12,
			"componentType":5126,
			"count":2,
			"type":"VEC3"
		},
		{
			"bufferView":13,
			"componentType":5126,
			"count":2,
			"type":"VEC3"
		},
		{
			"bufferView":14,
			"componentType":5126,
			"count":2,
			"type":"VEC4"
		},
		{
			"bufferView":15,
			"componentType":5126,
			"count":2,
			"type":"VEC3"
		},
		{
			"bufferView":16,
			"componentType":5126,
			"count":39,
			"type":"VEC4"
		},
		{
			"bufferView":17,
			"componentType":5126,
			"count":2,
			"type":"VEC3"
		},
		{
			"bufferView":18,
			"componentType":5126,
			"count":2,
			"type":"VEC3"
		},
		{
			"bufferView":19,
			"componentType":5126,
			"count":2,
			"type":"VEC4"
		},
		{
			"bufferView":20,
			"componentType":5126,
			"count":2,
			"type":"VEC3"
		},
		{
			"bufferView":21,
			"componentType":5126,
			"count":2,
			"type":"VEC3"
		},
		{
			"bufferView":22,
			"componentType":5126,
			"count":2,
			"type":"VEC4"
		},
		{
			"bufferView":23,
			"componentType":5126,
			"count":2,
			"type":"VEC3"
		},
		{
			"bufferView":24,
			"componentType":5126,
			"count":39,
			"type":"VEC4"
		},
		{
			"bufferView":25,
			"componentType":5126,
			"count":2,
			"type":"VEC3"
		},
		{
			"bufferView":26,
			"componentType":5126,
			"count":2,
			"type":"VEC3"
		},
		{
			"bufferView":27,
			"componentType":5126,
			"count":2,
			"type":"VEC4"
		},
		{
			"bufferView":28,
			"componentType":5126,
			"count":2,
			"type":"VEC3"
		},
		{
			"bufferView":29,
			"componentType":5126,
			"count":2,
			"type":"VEC4"
		},
		{
			"bufferView":30,
			"componentType":5126,
			"count":2,
			"type":"VEC3"
		},
		{
			"bufferView":31,
			"componentType":5126,
			"count":39,
			"type":"VEC4"
		},
		{
			"bufferView":32,
			"componentType":5126,
			"count":2,
			"type":"VEC3"
		},
		{
			"bufferView":33,
			"componentType":5126,
			"count":2,
			"type":"VEC4"
		},
		{
			"bufferView":34,
			"componentType":5126,
			"count":2,
			"type":"VEC3"
		},
		{
			"bufferView":35,
			"componentType":5126,
			"count":39,
			"type":"VEC4"
		},
		{
			"bufferView":36,
			"componentType":5126,
			"count":2,
			"type":"VEC4"
		},
		{
			"bufferView":37,
			"componentType":5126,
			"count":2,
			"type":"VEC3"
		},
		{
			"bufferView":38,
			"componentType":5126,
			"count":2,
			"type":"VEC4"
		}
	],
	"bufferViews":[
		{
			"buffer":0,
			"byteLength":1644,
			"byteOffset":0,
			"target":34962
		},
		{
			"buffer":0,
			"byteLength":1644,
			"byteOffset":1644,
			"target":34962
		},
		{
			"buffer":0,
			"byteLength":1096,
			"byteOffset":3288,
			"target":34962
		},
		{
			"buffer":0,
			"byteLength":1644,
			"byteOffset":4384,
			"target":34962
		},
		{
			"buffer":0,
			"byteLength":548,
			"byteOffset":6028,
			"target":34962
		},
		{
			"buffer":0,
			"byteLength":2192,
			"byteOffset":6576,
			"target":34962
		},
		{
			"buffer":0,
			"byteLength":624,
			"byteOffset":8768,
			"target":34963
		},
		{
			"buffer":0,
			"byteLength":832,
			"byteOffset":9392
		},
		{
			"buffer":0,
			"byteLength":156,
			"byteOffset":10224
		},
		{
			"buffer":0,
			"byteLength":468,
			"byteOffset":10380
		},
		{
			"buffer":0,
			"byteLength":8,
			"byteOffset":10848
		},
		{
			"buffer":0,
			"byteLength":32,
			"byteOffset":10856
		},
		{
			"buffer":0,
			"byteLength":24,
			"byteOffset":10888
		},
		{
			"buffer":0,
			"byteLength":24,
			"byteOffset":10912
		},
		{
			"buffer":0,
			"byteLength":32,
			"byteOffset":10936
		},
		{
			"buffer":0,
			"byteLength":24,
			"byteOffset":10968
		},
		{
			"buffer":0,
			"byteLength":624,
			"byteOffset":10992
		},
		{
			"buffer":0,
			"byteLength":24,
			"byteOffset":11616
		},
		{
			"buffer":0,
			"byteLength":24,
			"byteOffset":11640
		},
		{
			"buffer":0,
			"byteLength":32,
			"byteOffset":11664
		},
		{
			"buffer":0,
			"byteLength":24,
			"byteOffset":11696
		},
		{
			"buffer":0,
			"byteLength":24,
			"byteOffset":11720
		},
		{
			"buffer":0,
			"byteLength":32,
			"byteOffset":11744
		},
		{
			"buffer":0,
			"byteLength":24,
			"byteOffset":11776
		},
		{
			"buffer":0,
			"byteLength":624,
			"byteOffset":11800
		},
		{
			"buffer":0,
			"byteLength":24,
			"byteOffset":12424
		},
		{
			"buffer":0,
			"byteLength":24,
			"byteOffset":12448
		},
		{
			"buffer":0,
			"byteLength":32,
			"byteOffset":12472
		},
		{
			"buffer":0,
			"byteLength":24,
			"byteOffset":12504
		},
		{
			"buffer":0,
			"byteLength":32,
			"byteOffset":12528
		},
		{
			"buffer":0,
			"byteLength":24,
			"byteOffset":12560
		},
		{
			"buffer":0,
			"byteLength":624,
			"byteOffset":12584
		},
		{
			"buffer":0,
			"byteLength":24,
			"byteOffset":13208
		},
		{
			"buffer":0,
			"byteLength":32,
			"byteOffset":13232
		},
		{
			"buffer":0,
			"byteLength":24,
			"byteOffset":13264
		},
		{
			"buffer":0,
			"byteLength":624,
			"byteOffset":13288
		},
		{
			"buffer":0,
			"byteLength":32,
			"byteOffset":13912
		},
		{
			"buffer":0,
			"byteLength":24,
			"byteOffset":13944
		},
		{
			"buffer":0,
			"byteLength":32,
			"byteOffset":13968
		}
	],
	"buffers":[
		{
			"byteLength":14000,
			"uri":"Character.bin"
		}
	]
}
