{
	"asset":{
		"generator":"Khronos glTF Blender I/O v4.5.47",
		"version":"2.0"
	},
	"scene":0,
	"scenes":[
		{
			"name":"Scene",
			"nodes":[
				10
			]
		}
	],
	"nodes":[
		{
			"name":"Bone.003",
			"rotation":[
				0.017488956451416016,
				2.0053505522810156e-08,
				0.16044408082962036,
				0.9868900179862976
			],
			"scale":[
				0.9999999403953552,
				0.9999999403953552,
				0.9999999403953552
			],
			"translation":[
				4.394678398966789e-09,
				1.1592353582382202,
				4.583853296935558e-09
			]
		},
		{
			"name":"Bone.005",
			"rotation":[
				0.057560455054044724,
				5.481037401722233e-09,
				0.01251130923628807,
				0.9982636570930481
			],
			"scale":[
				1,
				1.0000001192092896,
				1
			],
			"translation":[
				3.725290298461914e-09,
				0.825914204120636,
				-3.001769073307514e-07
			]
		},
		{
			"children":[
				1
			],
			"name":"Bone.004",
			"rotation":[
				-0.6072574853897095,
				-4.709024281623897e-08,
				0.07352212071418762,
				0.791096031665802
			],
			"scale":[
				0.9999999403953552,
				0.9999999403953552,
				0.9999999403953552
			],
			"translation":[
				4.394678398966789e-09,
				1.1592353582382202,
				4.583853296935558e-09
			]
		},
		{
			"name":"Bone.007",
			"rotation":[
				-0.10329287499189377,
				5.620635512570971e-09,
				0.030535509809851646,
				0.9941821694374084
			],
			"scale":[
				0.9999998807907104,
				0.9999998807907104,
				0.9999999403953552
			],
			"translation":[
				-3.725290298461914e-09,
				0.7700232267379761,
				9.476207196712494e-08
			]
		},
		{
			"children":[
				3
			],
			"name":"Bone.006",
			"rotation":[
				0.6211258769035339,
				1.783655712017662e-08,
				0.0279068686068058,
				0.7832138538360596
			],
			"scale":[
				0.9999999403953552,
				0.9999998211860657,
				0.9999998807907104
			],
			"translation":[
				4.394678398966789e-09,
				1.1592353582382202,
				4.583853296935558e-09
			]
		},
		{
			"children":[
				0,
				2,
				4
			],
			"name":"Bone.001",
			"rotation":[
				0.007279032841324806,
				0.0022077043540775776,
				-0.04841313138604164,
				0.9987984299659729
			],
			"scale":[
				0.9999999403953552,
				1,
				0.9999998807907104
			],
			"translation":[
				-2.927720288425917e-09,
				1.7631019353866577,
				-1.5015757526271045e-09
			]
		},
		{
			"name":"Bone.002",
			"rotation":[
				-0.0005451980978250504,
				-0.002878728089854121,
				-0.010725969448685646,
				0.9999381899833679
			],
			"scale":[
				1,
				0.9999998211860657,
				0.9999999403953552
			],
			"translation":[
				-0.031693801283836365,
				3.5428340435028076,
				0.04208695888519287
			]
		},
		{
			"children":[
				5,
				6
			],
			"name":"Bone",
			"rotation":[
				0.00431394949555397,
				8.253702981164679e-05,
				0.012666599825024605,
				0.9999104738235474
			],
			"scale":[
				0.9999999403953552,
				1,
				0.9999999403953552
			]
		},
		{
			"name":"neutral_bone",
			"rotation":[
				-0.7071067690849304,
				0,
				0,
				0.7071067690849304
			]
		},
		{
			"mesh":0,
			"name":"Cube.001",
			"skin":0
		},
		{
			"children":[
				9,
				7,
				8
			],
			"name":"Armature"
		}
	],
	"animations":[
		{
			"channels":[
				{
					"sampler":0,
					"target":{
						"node":7,
						"path":"translation"
					}
				},
				{
					"sampler":1,
					"target":{
						"node":7,
						"path":"rotation"
					}
				},
				{
					"sampler":2,
					"target":{
						"node":7,
						"path":"scale"
					}
				},
				{
					"sampler":3,
					"target":{
						"node":5,
						"path":"translation"
					}
				},
				{
					"sampler":4,
					"target":{
						"node":5,
						"path":"rotation"
					}
				},
				{
					"sampler":5,
					"target":{
						"node":5,
						"path":"scale"
					}
				},
				{
					"sampler":6,
					"target":{
						"node":0,
						"path":"translation"
					}
				},
				{
					"sampler":7,
					"target":{
						"node":0,
						"path":"rotation"
					}
				},
				{
					"sampler":8,
					"target":{
						"node":0,
						"path":"scale"
					}
				},
				{
					"sampler":9,
					"target":{
						"node":2,
						"path":"translation"
					}
				},
				{
					"sampler":10,
					"target":{
						"node":2,
						"path":"rotation"
					}
				},
				{
					"sampler":11,
					"target":{
						"node":2,
						"path":"scale"
					}
				},
				{
					"sampler":12,
					"target":{
						"node":1,
						"path":"translation"
					}
				},
				{
					"sampler":13,
					"target":{
						"node":1,
						"path":"rotation"
					}
				},
				{
					"sampler":14,
					"target":{
						"node":1,
						"path":"scale"
					}
				},
				{
					"sampler":15,
					"target":{
						"node":4,
						"path":"translation"
					}
				},
				{
					"sampler":16,
					"target":{
						"node":4,
						"path":"rotation"
					}
				},
				{
					"sampler":17,
					"target":{
						"node":4,
						"path":"scale"
					}
				},
				{
					"sampler":18,
					"target":{
						"node":3,
						"path":"translation"
					}
				},
				{
					"sampler":19,
					"target":{
						"node":3,
						"path":"rotation"
					}
				},
				{
					"sampler":20,
					"target":{
						"node":3,
						"path":"scale"
					}
				},
				{
					"sampler":21,
					"target":{
						"node":6,
						"path":"translation"
					}
				},
				{
					"sampler":22,
					"target":{
						"node":6,
						"path":"rotation"
					}
				},
				{
					"sampler":23,
					"target":{
						"node":6,
						"path":"scale"
					}
				}
			],
			"name":"Head",
			"samplers":[
				{
					"input":15,
					"interpolation":"STEP",
					"output":16
				},
				{
					"input":15,
					"interpolation":"STEP",
					"output":17
				},
				{
					"input":15,
					"interpolation":"STEP",
					"output":18
				},
				{
					"input":15,
					"interpolation":"STEP",
					"output":19
				},
				{
					"input":15,
					"interpolation":"STEP",
					"output":20
				},
				{
					"input":15,
					"interpolation":"STEP",
					"output":21
				},
				{
					"input":15,
					"interpolation":"STEP",
					"output":22
				},
				{
					"input":15,
					"interpolation":"STEP",
					"output":23
				},
				{
					"input":15,
					"interpolation":"STEP",
					"output":24
				},
				{
					"input":15,
					"interpolation":"STEP",
					"output":25
				},
				{
					"input":15,
					"interpolation":"STEP",
					"output":26
				},
				{
					"input":15,
					"interpolation":"STEP",
					"output":27
				},
				{
					"input":15,
					"interpolation":"STEP",
					"output":28
				},
				{
					"input":15,
					"interpolation":"STEP",
					"output":29
				},
				{
					"input":15,
					"interpolation":"STEP",
					"output":30
				},
				{
					"input":15,
					"interpolation":"STEP",
					"output":31
				},
				{
					"input":15,
					"interpolation":"STEP",
					"output":32
				},
				{
					"input":15,
					"interpolation":"STEP",
					"output":33
				},
				{
					"input":15,
					"interpolation":"STEP",
					"output":34
				},
				{
					"input":15,
					"interpolation":"STEP",
					"output":35
				},
				{
					"input":15,
					"interpolation":"STEP",
					"output":36
				},
				{
					"input":15,
					"interpolation":"STEP",
					"output":37
				},
				{
					"input":38,
					"interpolation":"LINEAR",
					"output":39
				},
				{
					"input":15,
					"interpolation":"STEP",
					"output":40
				}
			]
		},
		{
			"channels":[
				{
					"sampler":0,
					"target":{
						"node":7,
						"path":"translation"
					}
				},
				{
					"sampler":1,
					"target":{
						"node":7,
						"path":"rotation"
					}
				},
				{
					"sampler":2,
					"target":{
						"node":7,
						"path":"scale"
					}
				},
				{
					"sampler":3,
					"target":{
						"node":5,
						"path":"translation"
					}
				},
				{
					"sampler":4,
					"target":{
						"node":5,
						"path":"rotation"
					}
				},
				{
					"sampler":5,
					"target":{
						"node":5,
						"path":"scale"
					}
				},
				{
					"sampler":6,
					"target":{
						"node":0,
						"path":"translation"
					}
				},
				{
					"sampler":7,
					"target":{
						"node":0,
						"path":"rotation"
					}
				},
				{
					"sampler":8,
					"target":{
						"node":0,
						"path":"scale"
					}
				},
				{
					"sampler":9,
					"target":{
						"node":2,
						"path":"translation"
					}
				},
				{
					"sampler":10,
					"target":{
						"node":2,
						"path":"rotation"
					}
				},
				{
					"sampler":11,
					"target":{
						"node":2,
						"path":"scale"
					}
				},
				{
					"sampler":12,
					"target":{
						"node":1,
						"path":"translation"
					}
				},
				{
					"sampler":13,
					"target":{
						"node":1,
						"path":"rotation"
					}
				},
				{
					"sampler":14,
					"target":{
						"node":1,
						"path":"scale"
					}
				},
				{
					"sampler":15,
					"target":{
						"node":4,
						"path":"translation"
					}
				},
				{
					"sampler":16,
					"target":{
						"node":4,
						"path":"rotation"
					}
				},
				{
					"sampler":17,
					"target":{
						"node":4,
						"path":"scale"
					}
				},
				{
					"sampler":18,
					"target":{
						"node":3,
						"path":"translation"
					}
				},
				{
					"sampler":19,
					"target":{
						"node":3,
						"path":"rotation"
					}
				},
				{
					"sampler":20,
					"target":{
						"node":3,
						"path":"scale"
					}
				},
				{
					"sampler":21,
					"target":{
						"node":6,
						"path":"translation"
					}
				},
				{
					"sampler":22,
					"target":{
						"node":6,
						"path":"rotation"
					}
				},
				{
					"sampler":23,
					"target":{
						"node":6,
						"path":"scale"
					}
				}
			],
			"name":"Jump",
			"samplers":[
				{
					"input":41,
					"interpolation":"LINEAR",
					"output":42
				},
				{
					"input":43,
					"interpolation":"STEP",
					"output":17
				},
				{
					"input":43,
					"interpolation":"STEP",
					"output":18
				},
				{
					"input":43,
					"interpolation":"STEP",
					"output":19
				},
				{
					"input":43,
					"interpolation":"STEP",
					"output":20
				},
				{
					"input":43,
					"interpolation":"STEP",
					"output":21
				},
				{
					"input":43,
					"interpolation":"STEP",
					"output":22
				},
				{
					"input":43,
					"interpolation":"STEP",
					"output":23
				},
				{
					"input":43,
					"interpolation":"STEP",
					"output":24
				},
				{
					"input":43,
					"interpolation":"STEP",
					"output":25
				},
				{
					"input":43,
					"interpolation":"STEP",
					"output":26
				},
				{
					"input":43,
					"interpolation":"STEP",
					"output":27
				},
				{
					"input":43,
					"interpolation":"STEP",
					"output":28
				},
				{
					"input":43,
					"interpolation":"STEP",
					"output":29
				},
				{
					"input":43,
					"interpolation":"STEP",
					"output":30
				},
				{
					"input":43,
					"interpolation":"STEP",
					"output":31
				},
				{
					"input":43,
					"interpolation":"STEP",
					"output":32
				},
				{
					"input":43,
					"interpolation":"STEP",
					"output":33
				},
				{
					"input":43,
					"interpolation":"STEP",
					"output":34
				},
				{
					"input":43,
					"interpolation":"STEP",
					"output":35
				},
				{
					"input":43,
					"interpolation":"STEP",
					"output":36
				},
				{
					"input":43,
					"interpolation":"STEP",
					"output":37
				},
				{
					"input":43,
					"interpolation":"STEP",
					"output":44
				},
				{
					"input":43,
					"interpolation":"STEP",
					"output":45
				}
			]
		}
	],
	"materials":[
		{
			"doubleSided":true,
			"name":"Material",
			"pbrMetallicRoughness":{
				"metallicFactor":0,
				"roughnessFactor":0.5
			}
		}
	],
	"meshes":[
		{
			"name":"Cube.001",
			"primitives":[
				{
					"attributes":{
						"POSITION":0,
						"NORMAL":1,
						"TEXCOORD_0":2,
						"COLOR_0":3,
						"JOINTS_0":4,
						"WEIGHTS_0":5
					},
					"indices":6,
					"material":0
				},
				{
					"attributes":{
						"POSITION":7,
						"NORMAL":8,
						"TEXCOORD_0":9,
						"COLOR_0":10,
						"JOINTS_0":11,
						"WEIGHTS_0":12
					},
					"indices":13
				}
			]
		}
	],
	"skins":[
		{
			"inverseBindMatrices":14,
			"joints":[
				7,
				5,
				0,
				2,
				1,
				4,
				3,
				6,
				8
			],
			"name":"Armature"
		}
	],
	"accessors":[
		{
			"bufferView":0,
			"componentType":5126,
			"count":375,
			"max":[
				1.1458370685577393,
				4.6661152839660645,
				1.2637474536895752
			],
			"min":[
				-1.3146140575408936,
				-0.011338040232658386,
				-1.1967029571533203
			],
			"type":"VEC3"
		},
		{
			"bufferView":1,
			"componentType":5126,
			"count":375,
			"type":"VEC3"
		},
		{
			"bufferView":2,
			"componentType":5126,
			"count":375,
			"type":"VEC2"
		},
		{
			"bufferView":3,
			"componentType":5126,
			"count":375,
			"type":"VEC3"
		},
		{
			"bufferView":4,
			"componentType":5121,
			"count":375,
			"type":"VEC4"
		},
		{
			"bufferView":5,
			"componentType":5126,
			"count":375,
			"type":"VEC4"
		},
		{
			"bufferView":6,
			"componentType":5123,
			"count":1728,
			"type":"SCALAR"
		},
		{
			"bufferView":7,
			"componentType":5126,
			"count":960,
			"max":[
				0.7278612852096558,
				4.345012664794922,
				1.9564226865768433
			],
			"min":[
				0.031730204820632935,
				3.0333425998687744,
				-1.8797894716262817
			],
			"type":"VEC3"
		},
		{
			"bufferView":8,
			"componentType":5126,
			"count":960,
			"type":"VEC3"
		},
		{
			"bufferView":9,
			"componentType":5126,
			"count":960,
			"type":"VEC2"
		},
		{
			"bufferView":10,
			"componentType":5126,
			"count":960,
			"type":"VEC3"
		},
		{
			"bufferView":11,
			"componentType":5121,
			"count":960,
			"type":"VEC4"
		},
		{
			"bufferView":12,
			"componentType":5126,
			"count":960,
			"type":"VEC4"
		},
		{
			"bufferView":13,
			"componentType":5123,
			"count":1860,
			"type":"SCALAR"
		},
		{
			"bufferView":14,
			"componentType":5126,
			"count":9,
			"type":"MAT4"
		},
		{
			"bufferView":15,
			"componentType":5126,
			"count":2,
			"max":[
				2.5
			],
			"min":[
				0
			],
			"type":"SCALAR"
		},
		{
			"bufferView":16,
			"componentType":5126,
			"count":2,
			"type":"VEC3"
		},
		{
			"bufferView":17,
			"componentType":5126,
			"count":2,
			"type":"VEC4"
		},
		{
			"bufferView":18,
			"componentType":5126,
			"count":2,
			"type":"VEC3"
		},
		{
			"bufferView":19,
			"componentType":5126,
			"count":2,
			"type":"VEC3"
		},
		{
			"bufferView":20,
			"componentType":5126,
			"count":2,
			"type":"VEC4"
		},
		{
			"bufferView":21,
			"componentType":5126,
			"count":2,
			"type":"VEC3"
		},
		{
			"bufferView":22,
			"componentType":5126,
			"count":2,
			"type":"VEC3"
		},
		{
			"bufferView":23,
			"componentType":5126,
			"count":2,
			"type":"VEC4"
		},
		{
			"bufferView":24,
			"componentType":5126,
			"count":2,
			"type":"VEC3"
		},
		{
			"bufferView":25,
			"componentType":5126,
			"count":2,
			"type":"VEC3"
		},
		{
			"bufferView":26,
			"componentType":5126,
			"count":2,
			"type":"VEC4"
		},
		{
			"bufferView":27,
			"componentType":5126,
			"count":2,
			"type":"VEC3"
		},
		{
			"bufferView":28,
			"componentType":5126,
			"count":2,
			"type":"VEC3"
		},
		{
			"bufferView":29,
			"componentType":5126,
			"count":2,
			"type":"VEC4"
		},
		{
			"bufferView":30,
			"componentType":5126,
			"count":2,
			"type":"VEC3"
		},
		{
			"bufferView":31,
			"componentType":5126,
			"count":2,
			"type":"VEC3"
		},
		{
			"bufferView":32,
			"componentType":5126,
			"count":2,
			"type":"VEC4"
		},
		{
			"bufferView":33,
			"componentType":5126,
			"count":2,
			"type":"VEC3"
		},
		{
			"bufferView":34,
			"componentType":5126,
			"count":2,
			"type":"VEC3"
		},
		{
			"bufferView":35,
			"componentType":5126,
			"count":2,
			"type":"VEC4"
		},
		{
			"bufferView":36,
			"componentType":5126,
			"count":2,
			"type":"VEC3"
		},
		{
			"bufferView":37,
			"componentType":5126,
			"count":2,
			"type":"VEC3"
		},
		{
			"bufferView":38,
			"componentType":5126,
			"count":61,
			"max":[
				2.5
			],
			"min":[
				0
			],
			"type":"SCALAR"
		},
		{
			"bufferView":39,
			"componentType":5126,
			"count":61,
			"type":"VEC4"
		},
		{
			"bufferView":40,
			"componentType":5126,
			"count":2,
			"type":"VEC3"
		},
		{
			"bufferView":41,
			"componentType":5126,
			"count":41,
			"max":[
				1.6666666666666667
			],
			"min":[
				0
			],
			"type":"SCALAR"
		},
		{
			"bufferView":42,
			"componentType":5126,
			"count":41,
			"type":"VEC3"
		},
		{
			"bufferView":43,
			"componentType":5126,
			"count":2,
			"max":[
				1.6666666666666667
			],
			"min":[
				0
			],
			"type":"SCALAR"
		},
		{
			"bufferView":44,
			"componentType":5126,
			"count":2,
			"type":"VEC4"
		},
		{
			"bufferView":45,
			"componentType":5126,
			"count":2,
			"type":"VEC3"
		}
	],
	"bufferViews":[
		{
			"buffer":0,
			"byteLength":4500,
			"byteOffset":0,
			"target":34962
		},
		{
			"buffer":0,
			"byteLength":4500,
			"byteOffset":4500,
			"target":34962
		},
		{
			"buffer":0,
			"byteLength":3000,
			"byteOffset":9000,
			"target":34962
		},
		{
			"buffer":0,
			"byteLength":4500,
			"byteOffset":12000,
			"target":34962
		},
		{
			"buffer":0,
			"byteLength":1500,
			"byteOffset":16500,
			"target":34962
		},
		{
			"buffer":0,
			"byteLength":6000,
			"byteOffset":18000,
			"target":34962
		},
		{
			"buffer":0,
			"byteLength":3456,
			"byteOffset":24000,
			"target":34963
		},
		{
			"buffer":0,
			"byteLength":11520,
			"byteOffset":27456,
			"target":34962
		},
		{
			"buffer":0,
			"byteLength":11520,
			"byteOffset":38976,
			"target":34962
		},
		{
			"buffer":0,
			"byteLength":7680,
			"byteOffset":50496,
			"target":34962
		},
		{
			"buffer":0,
			"byteLength":11520,
			"byteOffset":58176,
			"target":34962
		},
		{
			"buffer":0,
			"byteLength":3840,
			"byteOffset":69696,
			"target":34962
		},
		{
			"buffer":0,
			"byteLength":15360,
			"byteOffset":73536,
			"target":34962
		},
		{
			"buffer":0,
			"byteLength":3720,
			"byteOffset":88896,
			"target":34963
		},
		{
			"buffer":0,
			"byteLength":576,
			"byteOffset":92616
		},
		{
			"buffer":0,
			"byteLength":8,
			"byteOffset":93192
		},
		{
			"buffer":0,
			"byteLength":24,
			"byteOffset":93200
		},
		{
			"buffer":0,
			"byteLength":32,
			"byteOffset":93224
		},
		{
			"buffer":0,
			"byteLength":24,
			"byteOffset":93256
		},
		{
			"buffer":0,
			"byteLength":24,
			"byteOffset":93280
		},
		{
			"buffer":0,
			"byteLength":32,
			"byteOffset":93304
		},
		{
			"buffer":0,
			"byteLength":24,
			"byteOffset":93336
		},
		{
			"buffer":0,
			"byteLength":24,
			"byteOffset":93360
		},
		{
			"buffer":0,
			"byteLength":32,
			"byteOffset":93384
		},
		{
			"buffer":0,
			"byteLength":24,
			"byteOffset":93416
		},
		{
			"buffer":0,
			"byteLength":24,
			"byteOffset":93440
		},
		{
			"buffer":0,
			"byteLength":32,
			"byteOffset":93464
		},
		{
			"buffer":0,
			"byteLength":24,
			"byteOffset":93496
		},
		{
			"buffer":0,
			"byteLength":24,
			"byteOffset":93520
		},
		{
			"buffer":0,
			"byteLength":32,
			"byteOffset":93544
		},
		{
			"buffer":0,
			"byteLength":24,
			"byteOffset":93576
		},
		{
			"buffer":0,
			"byteLength":24,
			"byteOffset":93600
		},
		{
			"buffer":0,
			"byteLength":32,
			"byteOffset":93624
		},
		{
			"buffer":0,
			"byteLength":24,
			"byteOffset":93656
		},
		{
			"buffer":0,
			"byteLength":24,
			"byteOffset":93680
		},
		{
			"buffer":0,
			"byteLength":32,
			"byteOffset":93704
		},
		{
			"buffer":0,
			"byteLength":24,
			"byteOffset":93736
		},
		{
			"buffer":0,
			"byteLength":24,
			"byteOffset":93760
		},
		{
			"buffer":0,
			"byteLength":244,
			"byteOffset":93784
		},
		{
			"buffer":0,
			"byteLength":976,
			"byteOffset":94028
		},
		{
			"buffer":0,
			"byteLength":24,
			"byteOffset":95004
		},
		{
			"buffer":0,
			"byteLength":164,
			"byteOffset":95028
		},
		{
			"buffer":0,
			"byteLength":492,
			"byteOffset":95192
		},
		{
			"buffer":0,
			"byteLength":8,
			"byteOffset":95684
		},
		{
			"buffer":0,
			"byteLength":32,
			"byteOffset":95692
		},
		{
			"buffer":0,
			"byteLength":24,
			"byteOffset":95724
		}
	],
	"buffers":[
		{
			"byteLength":95748,
			"uri":"Snowman2.bin"
		}
	]
}
