{
	"asset":{
		"generator":"Khronos glTF Blender I/O v4.5.47",
		"version":"2.0"
	},
	"scene":0,
	"scenes":[
		{
			"name":"Scene",
			"nodes":[
				0
			]
		}
	],
	"nodes":[
		{
			"mesh":0,
			"name":"Plane"
		}
	],
	"meshes":[
		{
			"name":"Plane",
			"primitives":[
				{
					"attributes":{
						"POSITION":0,
						"NORMAL":1,
						"TEXCOORD_0":2
					},
					"indices":3
				}
			]
		}
	],
	"accessors":[
		{
			"bufferView":0,
			"componentType":5126,
			"count":109162,
			"max":[
				6.201162338256836,
				6.257701873779297,
				1.7421950101852417
			],
			"min":[
				-6.201161861419678,
				-6.201160907745361,
				-0.07110835611820221
			],
			"type":"VEC3"
		},
		{
			"bufferView":1,
			"componentType":5126,
			"count":109162,
			"type":"VEC3"
		},
		{
			"bufferView":2,
			"componentType":5126,
			"count":109162,
			"type":"VEC2"
		},
		{
			"bufferView":3,
			"componentType":5125,
			"count":637584,
			"type":"SCALAR"
		}
	],
	"bufferViews":[
		{
			"buffer":0,
			"byteLength":1309944,
			"byteOffset":0,
			"target":34962
		},
		{
			"buffer":0,
			"byteLength":1309944,
			"byteOffset":1309944,
			"target":34962
		},
		{
			"buffer":0,
			"byteLength":873296,
			"byteOffset":2619888,
			"target":34962
		},
		{
			"buffer":0,
			"byteLength":2550336,
			"byteOffset":3493184,
			"target":34963
		}
	],
	"buffers":[
		{
			"byteLength":6043520,
			"uri":"bumpy.bin"
		}
	]
}
