{
	"asset":{
		"generator":"Khronos glTF Blender I/O v4.5.47",
		"version":"2.0"
	},
	"scene":0,
	"scenes":[
		{
			"name":"Scene",
			"nodes":[
				0
			]
		}
	],
	"nodes":[
		{
			"mesh":0,
			"name":"Cube"
		}
	],
	"meshes":[
		{
			"name":"Cube.001",
			"primitives":[
				{
					"attributes":{
						"POSITION":0,
						"NORMAL":1,
						"TEXCOORD_0":2
					},
					"indices":3
				}
			]
		}
	],
	"accessors":[
		{
			"bufferView":0,
			"componentType":5126,
			"count":795,
			"max":[
				0.1475629359483719,
				0.38489195704460144,
				0.03899713233113289
			],
			"min":[
				-0.3584213852882385,
				-1.2669807425425006e-08,
				-0.4070114493370056
			],
			"type":"VEC3"
		},
		{
			"bufferView":1,
			"componentType":5126,
			"count":795,
			"type":"VEC3"
		},
		{
			"bufferView":2,
			"componentType":5126,
			"count":795,
			"type":"VEC2"
		},
		{
			"bufferView":3,
			"componentType":5123,
			"count":4368,
			"type":"SCALAR"
		}
	],
	"bufferViews":[
		{
			"buffer":0,
			"byteLength":9540,
			"byteOffset":0,
			"target":34962
		},
		{
			"buffer":0,
			"byteLength":9540,
			"byteOffset":9540,
			"target":34962
		},
		{
			"buffer":0,
			"byteLength":6360,
			"byteOffset":19080,
			"target":34962
		},
		{
			"buffer":0,
			"byteLength":8736,
			"byteOffset":25440,
			"target":34963
		}
	],
	"buffers":[
		{
			"byteLength":34176,
			"uri":"Pipes.bin"
		}
	]
}
