{
	"asset":{
		"generator":"Khronos glTF Blender I/O v4.5.47",
		"version":"2.0"
	},
	"scene":0,
	"scenes":[
		{
			"name":"Scene",
			"nodes":[
				0
			]
		}
	],
	"nodes":[
		{
			"mesh":0,
			"name":"Cube"
		}
	],
	"materials":[
		{
			"doubleSided":true,
			"name":"Material",
			"pbrMetallicRoughness":{
				"metallicFactor":0,
				"roughnessFactor":0.5
			}
		}
	],
	"meshes":[
		{
			"name":"Cube",
			"primitives":[
				{
					"attributes":{
						"POSITION":0,
						"NORMAL":1,
						"TEXCOORD_0":2,
						"COLOR_0":3
					},
					"indices":4,
					"material":0
				}
			]
		}
	],
	"accessors":[
		{
			"bufferView":0,
			"componentType":5126,
			"count":187900,
			"max":[
				1.0072145462036133,
				10.245379447937012,
				5.298184871673584
			],
			"min":[
				-1.0070520639419556,
				-0.8370985984802246,
				-5.654599189758301
			],
			"type":"VEC3"
		},
		{
			"bufferView":1,
			"componentType":5126,
			"count":187900,
			"type":"VEC3"
		},
		{
			"bufferView":2,
			"componentType":5126,
			"count":187900,
			"type":"VEC2"
		},
		{
			"bufferView":3,
			"componentType":5126,
			"count":187900,
			"type":"VEC3"
		},
		{
			"bufferView":4,
			"componentType":5125,
			"count":288768,
			"type":"SCALAR"
		}
	],
	"bufferViews":[
		{
			"buffer":0,
			"byteLength":2254800,
			"byteOffset":0,
			"target":34962
		},
		{
			"buffer":0,
			"byteLength":2254800,
			"byteOffset":2254800,
			"target":34962
		},
		{
			"buffer":0,
			"byteLength":1503200,
			"byteOffset":4509600,
			"target":34962
		},
		{
			"buffer":0,
			"byteLength":2254800,
			"byteOffset":6012800,
			"target":34962
		},
		{
			"buffer":0,
			"byteLength":1155072,
			"byteOffset":8267600,
			"target":34963
		}
	],
	"buffers":[
		{
			"byteLength":9422672,
			"uri":"Saguaro.bin"
		}
	]
}
