{
	"asset":{
		"generator":"Khronos glTF Blender I/O v4.5.47",
		"version":"2.0"
	},
	"scene":0,
	"scenes":[
		{
			"name":"Scene",
			"nodes":[
				8
			]
		}
	],
	"nodes":[
		{
			"name":"Bone.003",
			"rotation":[
				-0.12694375216960907,
				-5.165208705193436e-08,
				0.020993473008275032,
				0.9916877150535583
			],
			"scale":[
				1,
				1.000000238418579,
				1
			],
			"translation":[
				-4.71482053399086e-09,
				0.5313863158226013,
				1.6583726392127573e-08
			]
		},
		{
			"children":[
				0
			],
			"name":"Bone.002",
			"rotation":[
				-0.07590510696172714,
				-1.6900273180908698e-08,
				0.006867113057523966,
				0.9970914125442505
			],
			"scale":[
				1,
				1,
				0.9999999403953552
			],
			"translation":[
				-1.7389538697898388e-09,
				0.7283216118812561,
				3.633613232523203e-08
			]
		},
		{
			"name":"Bone.004",
			"rotation":[
				-0.1315871775150299,
				-2.629819206845241e-08,
				-0.7082787752151489,
				0.6935604214668274
			],
			"scale":[
				1,
				0.9999999403953552,
				1
			],
			"translation":[
				-1.7389538697898388e-09,
				0.7283216118812561,
				3.633613232523203e-08
			]
		},
		{
			"name":"Bone.009",
			"rotation":[
				-0.05262604355812073,
				-0.018259143456816673,
				0.7205032706260681,
				0.6912106275558472
			],
			"translation":[
				-1.7389538697898388e-09,
				0.7283216118812561,
				3.633613232523203e-08
			]
		},
		{
			"children":[
				1,
				2,
				3
			],
			"name":"Bone.001",
			"rotation":[
				0.093498595058918,
				0.0011023286497220397,
				0.013879094272851944,
				0.9955220818519592
			],
			"scale":[
				1,
				1,
				0.9999999403953552
			],
			"translation":[
				0,
				1.7182731628417969,
				0
			]
		},
		{
			"children":[
				4
			],
			"name":"Bone"
		},
		{
			"name":"neutral_bone",
			"rotation":[
				-0.7071067690849304,
				0,
				0,
				0.7071067690849304
			]
		},
		{
			"mesh":0,
			"name":"Cylinder.003",
			"skin":0
		},
		{
			"children":[
				7,
				5,
				6
			],
			"name":"Armature",
			"translation":[
				-0.02100721001625061,
				0.03943943977355957,
				0.03199435770511627
			]
		}
	],
	"animations":[
		{
			"channels":[
				{
					"sampler":0,
					"target":{
						"node":5,
						"path":"translation"
					}
				},
				{
					"sampler":1,
					"target":{
						"node":5,
						"path":"rotation"
					}
				},
				{
					"sampler":2,
					"target":{
						"node":5,
						"path":"scale"
					}
				},
				{
					"sampler":3,
					"target":{
						"node":4,
						"path":"translation"
					}
				},
				{
					"sampler":4,
					"target":{
						"node":4,
						"path":"rotation"
					}
				},
				{
					"sampler":5,
					"target":{
						"node":4,
						"path":"scale"
					}
				},
				{
					"sampler":6,
					"target":{
						"node":1,
						"path":"translation"
					}
				},
				{
					"sampler":7,
					"target":{
						"node":1,
						"path":"rotation"
					}
				},
				{
					"sampler":8,
					"target":{
						"node":1,
						"path":"scale"
					}
				},
				{
					"sampler":9,
					"target":{
						"node":0,
						"path":"translation"
					}
				},
				{
					"sampler":10,
					"target":{
						"node":0,
						"path":"rotation"
					}
				},
				{
					"sampler":11,
					"target":{
						"node":0,
						"path":"scale"
					}
				},
				{
					"sampler":12,
					"target":{
						"node":2,
						"path":"translation"
					}
				},
				{
					"sampler":13,
					"target":{
						"node":2,
						"path":"rotation"
					}
				},
				{
					"sampler":14,
					"target":{
						"node":2,
						"path":"scale"
					}
				},
				{
					"sampler":15,
					"target":{
						"node":3,
						"path":"translation"
					}
				},
				{
					"sampler":16,
					"target":{
						"node":3,
						"path":"rotation"
					}
				},
				{
					"sampler":17,
					"target":{
						"node":3,
						"path":"scale"
					}
				}
			],
			"name":"Head",
			"samplers":[
				{
					"input":29,
					"interpolation":"STEP",
					"output":30
				},
				{
					"input":29,
					"interpolation":"STEP",
					"output":31
				},
				{
					"input":29,
					"interpolation":"STEP",
					"output":32
				},
				{
					"input":29,
					"interpolation":"STEP",
					"output":33
				},
				{
					"input":29,
					"interpolation":"STEP",
					"output":34
				},
				{
					"input":29,
					"interpolation":"STEP",
					"output":35
				},
				{
					"input":29,
					"interpolation":"STEP",
					"output":36
				},
				{
					"input":29,
					"interpolation":"STEP",
					"output":37
				},
				{
					"input":29,
					"interpolation":"STEP",
					"output":38
				},
				{
					"input":29,
					"interpolation":"STEP",
					"output":39
				},
				{
					"input":40,
					"interpolation":"LINEAR",
					"output":41
				},
				{
					"input":29,
					"interpolation":"STEP",
					"output":42
				},
				{
					"input":29,
					"interpolation":"STEP",
					"output":43
				},
				{
					"input":29,
					"interpolation":"STEP",
					"output":44
				},
				{
					"input":29,
					"interpolation":"STEP",
					"output":45
				},
				{
					"input":29,
					"interpolation":"STEP",
					"output":46
				},
				{
					"input":29,
					"interpolation":"STEP",
					"output":47
				},
				{
					"input":29,
					"interpolation":"STEP",
					"output":38
				}
			]
		},
		{
			"channels":[
				{
					"sampler":0,
					"target":{
						"node":5,
						"path":"translation"
					}
				},
				{
					"sampler":1,
					"target":{
						"node":5,
						"path":"rotation"
					}
				},
				{
					"sampler":2,
					"target":{
						"node":5,
						"path":"scale"
					}
				},
				{
					"sampler":3,
					"target":{
						"node":4,
						"path":"translation"
					}
				},
				{
					"sampler":4,
					"target":{
						"node":4,
						"path":"rotation"
					}
				},
				{
					"sampler":5,
					"target":{
						"node":4,
						"path":"scale"
					}
				},
				{
					"sampler":6,
					"target":{
						"node":1,
						"path":"translation"
					}
				},
				{
					"sampler":7,
					"target":{
						"node":1,
						"path":"rotation"
					}
				},
				{
					"sampler":8,
					"target":{
						"node":1,
						"path":"scale"
					}
				},
				{
					"sampler":9,
					"target":{
						"node":0,
						"path":"translation"
					}
				},
				{
					"sampler":10,
					"target":{
						"node":0,
						"path":"rotation"
					}
				},
				{
					"sampler":11,
					"target":{
						"node":0,
						"path":"scale"
					}
				},
				{
					"sampler":12,
					"target":{
						"node":2,
						"path":"translation"
					}
				},
				{
					"sampler":13,
					"target":{
						"node":2,
						"path":"rotation"
					}
				},
				{
					"sampler":14,
					"target":{
						"node":2,
						"path":"scale"
					}
				},
				{
					"sampler":15,
					"target":{
						"node":3,
						"path":"translation"
					}
				},
				{
					"sampler":16,
					"target":{
						"node":3,
						"path":"rotation"
					}
				},
				{
					"sampler":17,
					"target":{
						"node":3,
						"path":"scale"
					}
				}
			],
			"name":"jump",
			"samplers":[
				{
					"input":48,
					"interpolation":"LINEAR",
					"output":49
				},
				{
					"input":50,
					"interpolation":"STEP",
					"output":31
				},
				{
					"input":50,
					"interpolation":"STEP",
					"output":32
				},
				{
					"input":50,
					"interpolation":"STEP",
					"output":33
				},
				{
					"input":50,
					"interpolation":"STEP",
					"output":34
				},
				{
					"input":50,
					"interpolation":"STEP",
					"output":35
				},
				{
					"input":50,
					"interpolation":"STEP",
					"output":36
				},
				{
					"input":50,
					"interpolation":"STEP",
					"output":37
				},
				{
					"input":50,
					"interpolation":"STEP",
					"output":38
				},
				{
					"input":50,
					"interpolation":"STEP",
					"output":39
				},
				{
					"input":50,
					"interpolation":"STEP",
					"output":51
				},
				{
					"input":50,
					"interpolation":"STEP",
					"output":42
				},
				{
					"input":50,
					"interpolation":"STEP",
					"output":43
				},
				{
					"input":50,
					"interpolation":"STEP",
					"output":44
				},
				{
					"input":50,
					"interpolation":"STEP",
					"output":45
				},
				{
					"input":50,
					"interpolation":"STEP",
					"output":46
				},
				{
					"input":50,
					"interpolation":"STEP",
					"output":47
				},
				{
					"input":50,
					"interpolation":"STEP",
					"output":38
				}
			]
		}
	],
	"materials":[
		{
			"doubleSided":true,
			"name":"Material",
			"pbrMetallicRoughness":{
				"metallicFactor":0,
				"roughnessFactor":0.5
			}
		},
		{
			"doubleSided":true,
			"name":"button",
			"pbrMetallicRoughness":{
				"baseColorFactor":[
					0.0040269773453474045,
					0.0040269773453474045,
					0.0040269773453474045,
					1
				],
				"metallicFactor":0,
				"roughnessFactor":0.5
			}
		},
		{
			"doubleSided":true,
			"name":"carrot",
			"pbrMetallicRoughness":{
				"baseColorFactor":[
					0.8004156351089478,
					0.227882981300354,
					0.033013664186000824,
					1
				],
				"metallicFactor":0,
				"roughnessFactor":0.5
			}
		}
	],
	"meshes":[
		{
			"name":"Cylinder.014",
			"primitives":[
				{
					"attributes":{
						"POSITION":0,
						"NORMAL":1,
						"TEXCOORD_0":2,
						"COLOR_0":3,
						"JOINTS_0":4,
						"WEIGHTS_0":5
					},
					"indices":6
				},
				{
					"attributes":{
						"POSITION":7,
						"NORMAL":8,
						"TEXCOORD_0":9,
						"COLOR_0":10,
						"JOINTS_0":11,
						"WEIGHTS_0":12
					},
					"indices":13,
					"material":0
				},
				{
					"attributes":{
						"POSITION":14,
						"NORMAL":15,
						"TEXCOORD_0":16,
						"COLOR_0":17,
						"JOINTS_0":18,
						"WEIGHTS_0":19
					},
					"indices":20,
					"material":1
				},
				{
					"attributes":{
						"POSITION":21,
						"NORMAL":22,
						"TEXCOORD_0":23,
						"COLOR_0":24,
						"JOINTS_0":25,
						"WEIGHTS_0":26
					},
					"indices":27,
					"material":2
				}
			]
		}
	],
	"skins":[
		{
			"inverseBindMatrices":28,
			"joints":[
				5,
				4,
				1,
				0,
				2,
				3,
				6
			],
			"name":"Armature"
		}
	],
	"accessors":[
		{
			"bufferView":0,
			"componentType":5126,
			"count":64,
			"max":[
				0.6884167790412903,
				2.515949249267578,
				0.11935478448867798
			],
			"min":[
				-0.7955593466758728,
				2.377399444580078,
				-0.055738259106874466
			],
			"type":"VEC3"
		},
		{
			"bufferView":1,
			"componentType":5126,
			"count":64,
			"type":"VEC3"
		},
		{
			"bufferView":2,
			"componentType":5126,
			"count":64,
			"type":"VEC2"
		},
		{
			"bufferView":3,
			"componentType":5126,
			"count":64,
			"type":"VEC3"
		},
		{
			"bufferView":4,
			"componentType":5121,
			"count":64,
			"type":"VEC4"
		},
		{
			"bufferView":5,
			"componentType":5126,
			"count":64,
			"type":"VEC4"
		},
		{
			"bufferView":6,
			"componentType":5123,
			"count":180,
			"type":"SCALAR"
		},
		{
			"bufferView":7,
			"componentType":5126,
			"count":375,
			"max":[
				1.1235837936401367,
				4.036416053771973,
				1.1928067207336426
			],
			"min":[
				-1.2088289260864258,
				-0.06766680628061295,
				-1.155302882194519
			],
			"type":"VEC3"
		},
		{
			"bufferView":8,
			"componentType":5126,
			"count":375,
			"type":"VEC3"
		},
		{
			"bufferView":9,
			"componentType":5126,
			"count":375,
			"type":"VEC2"
		},
		{
			"bufferView":10,
			"componentType":5126,
			"count":375,
			"type":"VEC3"
		},
		{
			"bufferView":11,
			"componentType":5121,
			"count":375,
			"type":"VEC4"
		},
		{
			"bufferView":12,
			"componentType":5126,
			"count":375,
			"type":"VEC4"
		},
		{
			"bufferView":13,
			"componentType":5123,
			"count":1728,
			"type":"SCALAR"
		},
		{
			"bufferView":14,
			"componentType":5126,
			"count":1920,
			"max":[
				0.22093042731285095,
				3.8438515663146973,
				0.8978728652000427
			],
			"min":[
				-0.45549070835113525,
				2.3384718894958496,
				0.5020849704742432
			],
			"type":"VEC3"
		},
		{
			"bufferView":15,
			"componentType":5126,
			"count":1920,
			"type":"VEC3"
		},
		{
			"bufferView":16,
			"componentType":5126,
			"count":1920,
			"type":"VEC2"
		},
		{
			"bufferView":17,
			"componentType":5126,
			"count":1920,
			"type":"VEC3"
		},
		{
			"bufferView":18,
			"componentType":5121,
			"count":1920,
			"type":"VEC4"
		},
		{
			"bufferView":19,
			"componentType":5126,
			"count":1920,
			"type":"VEC4"
		},
		{
			"bufferView":20,
			"componentType":5123,
			"count":3720,
			"type":"SCALAR"
		},
		{
			"bufferView":21,
			"componentType":5126,
			"count":192,
			"max":[
				-0.07512126863002777,
				3.5783092975616455,
				0.7764109969139099
			],
			"min":[
				-0.18088939785957336,
				3.4713962078094482,
				0.5615088939666748
			],
			"type":"VEC3"
		},
		{
			"bufferView":22,
			"componentType":5126,
			"count":192,
			"type":"VEC3"
		},
		{
			"bufferView":23,
			"componentType":5126,
			"count":192,
			"type":"VEC2"
		},
		{
			"bufferView":24,
			"componentType":5126,
			"count":192,
			"type":"VEC3"
		},
		{
			"bufferView":25,
			"componentType":5121,
			"count":192,
			"type":"VEC4"
		},
		{
			"bufferView":26,
			"componentType":5126,
			"count":192,
			"type":"VEC4"
		},
		{
			"bufferView":27,
			"componentType":5123,
			"count":372,
			"type":"SCALAR"
		},
		{
			"bufferView":28,
			"componentType":5126,
			"count":7,
			"type":"MAT4"
		},
		{
			"bufferView":29,
			"componentType":5126,
			"count":2,
			"max":[
				2.5
			],
			"min":[
				0.8333333333333334
			],
			"type":"SCALAR"
		},
		{
			"bufferView":30,
			"componentType":5126,
			"count":2,
			"type":"VEC3"
		},
		{
			"bufferView":31,
			"componentType":5126,
			"count":2,
			"type":"VEC4"
		},
		{
			"bufferView":32,
			"componentType":5126,
			"count":2,
			"type":"VEC3"
		},
		{
			"bufferView":33,
			"componentType":5126,
			"count":2,
			"type":"VEC3"
		},
		{
			"bufferView":34,
			"componentType":5126,
			"count":2,
			"type":"VEC4"
		},
		{
			"bufferView":35,
			"componentType":5126,
			"count":2,
			"type":"VEC3"
		},
		{
			"bufferView":36,
			"componentType":5126,
			"count":2,
			"type":"VEC3"
		},
		{
			"bufferView":37,
			"componentType":5126,
			"count":2,
			"type":"VEC4"
		},
		{
			"bufferView":38,
			"componentType":5126,
			"count":2,
			"type":"VEC3"
		},
		{
			"bufferView":39,
			"componentType":5126,
			"count":2,
			"type":"VEC3"
		},
		{
			"bufferView":40,
			"componentType":5126,
			"count":41,
			"max":[
				2.5
			],
			"min":[
				0.8333333333333334
			],
			"type":"SCALAR"
		},
		{
			"bufferView":41,
			"componentType":5126,
			"count":41,
			"type":"VEC4"
		},
		{
			"bufferView":42,
			"componentType":5126,
			"count":2,
			"type":"VEC3"
		},
		{
			"bufferView":43,
			"componentType":5126,
			"count":2,
			"type":"VEC3"
		},
		{
			"bufferView":44,
			"componentType":5126,
			"count":2,
			"type":"VEC4"
		},
		{
			"bufferView":45,
			"componentType":5126,
			"count":2,
			"type":"VEC3"
		},
		{
			"bufferView":46,
			"componentType":5126,
			"count":2,
			"type":"VEC3"
		},
		{
			"bufferView":47,
			"componentType":5126,
			"count":2,
			"type":"VEC4"
		},
		{
			"bufferView":48,
			"componentType":5126,
			"count":41,
			"max":[
				1.6666666666666667
			],
			"min":[
				0
			],
			"type":"SCALAR"
		},
		{
			"bufferView":49,
			"componentType":5126,
			"count":41,
			"type":"VEC3"
		},
		{
			"bufferView":50,
			"componentType":5126,
			"count":2,
			"max":[
				1.6666666666666667
			],
			"min":[
				0
			],
			"type":"SCALAR"
		},
		{
			"bufferView":51,
			"componentType":5126,
			"count":2,
			"type":"VEC4"
		}
	],
	"bufferViews":[
		{
			"buffer":0,
			"byteLength":768,
			"byteOffset":0,
			"target":34962
		},
		{
			"buffer":0,
			"byteLength":768,
			"byteOffset":768,
			"target":34962
		},
		{
			"buffer":0,
			"byteLength":512,
			"byteOffset":1536,
			"target":34962
		},
		{
			"buffer":0,
			"byteLength":768,
			"byteOffset":2048,
			"target":34962
		},
		{
			"buffer":0,
			"byteLength":256,
			"byteOffset":2816,
			"target":34962
		},
		{
			"buffer":0,
			"byteLength":1024,
			"byteOffset":3072,
			"target":34962
		},
		{
			"buffer":0,
			"byteLength":360,
			"byteOffset":4096,
			"target":34963
		},
		{
			"buffer":0,
			"byteLength":4500,
			"byteOffset":4456,
			"target":34962
		},
		{
			"buffer":0,
			"byteLength":4500,
			"byteOffset":8956,
			"target":34962
		},
		{
			"buffer":0,
			"byteLength":3000,
			"byteOffset":13456,
			"target":34962
		},
		{
			"buffer":0,
			"byteLength":4500,
			"byteOffset":16456,
			"target":34962
		},
		{
			"buffer":0,
			"byteLength":1500,
			"byteOffset":20956,
			"target":34962
		},
		{
			"buffer":0,
			"byteLength":6000,
			"byteOffset":22456,
			"target":34962
		},
		{
			"buffer":0,
			"byteLength":3456,
			"byteOffset":28456,
			"target":34963
		},
		{
			"buffer":0,
			"byteLength":23040,
			"byteOffset":31912,
			"target":34962
		},
		{
			"buffer":0,
			"byteLength":23040,
			"byteOffset":54952,
			"target":34962
		},
		{
			"buffer":0,
			"byteLength":15360,
			"byteOffset":77992,
			"target":34962
		},
		{
			"buffer":0,
			"byteLength":23040,
			"byteOffset":93352,
			"target":34962
		},
		{
			"buffer":0,
			"byteLength":7680,
			"byteOffset":116392,
			"target":34962
		},
		{
			"buffer":0,
			"byteLength":30720,
			"byteOffset":124072,
			"target":34962
		},
		{
			"buffer":0,
			"byteLength":7440,
			"byteOffset":154792,
			"target":34963
		},
		{
			"buffer":0,
			"byteLength":2304,
			"byteOffset":162232,
			"target":34962
		},
		{
			"buffer":0,
			"byteLength":2304,
			"byteOffset":164536,
			"target":34962
		},
		{
			"buffer":0,
			"byteLength":1536,
			"byteOffset":166840,
			"target":34962
		},
		{
			"buffer":0,
			"byteLength":2304,
			"byteOffset":168376,
			"target":34962
		},
		{
			"buffer":0,
			"byteLength":768,
			"byteOffset":170680,
			"target":34962
		},
		{
			"buffer":0,
			"byteLength":3072,
			"byteOffset":171448,
			"target":34962
		},
		{
			"buffer":0,
			"byteLength":744,
			"byteOffset":174520,
			"target":34963
		},
		{
			"buffer":0,
			"byteLength":448,
			"byteOffset":175264
		},
		{
			"buffer":0,
			"byteLength":8,
			"byteOffset":175712
		},
		{
			"buffer":0,
			"byteLength":24,
			"byteOffset":175720
		},
		{
			"buffer":0,
			"byteLength":32,
			"byteOffset":175744
		},
		{
			"buffer":0,
			"byteLength":24,
			"byteOffset":175776
		},
		{
			"buffer":0,
			"byteLength":24,
			"byteOffset":175800
		},
		{
			"buffer":0,
			"byteLength":32,
			"byteOffset":175824
		},
		{
			"buffer":0,
			"byteLength":24,
			"byteOffset":175856
		},
		{
			"buffer":0,
			"byteLength":24,
			"byteOffset":175880
		},
		{
			"buffer":0,
			"byteLength":32,
			"byteOffset":175904
		},
		{
			"buffer":0,
			"byteLength":24,
			"byteOffset":175936
		},
		{
			"buffer":0,
			"byteLength":24,
			"byteOffset":175960
		},
		{
			"buffer":0,
			"byteLength":164,
			"byteOffset":175984
		},
		{
			"buffer":0,
			"byteLength":656,
			"byteOffset":176148
		},
		{
			"buffer":0,
			"byteLength":24,
			"byteOffset":176804
		},
		{
			"buffer":0,
			"byteLength":24,
			"byteOffset":176828
		},
		{
			"buffer":0,
			"byteLength":32,
			"byteOffset":176852
		},
		{
			"buffer":0,
			"byteLength":24,
			"byteOffset":176884
		},
		{
			"buffer":0,
			"byteLength":24,
			"byteOffset":176908
		},
		{
			"buffer":0,
			"byteLength":32,
			"byteOffset":176932
		},
		{
			"buffer":0,
			"byteLength":164,
			"byteOffset":176964
		},
		{
			"buffer":0,
			"byteLength":492,
			"byteOffset":177128
		},
		{
			"buffer":0,
			"byteLength":8,
			"byteOffset":177620
		},
		{
			"buffer":0,
			"byteLength":32,
			"byteOffset":177628
		}
	],
	"buffers":[
		{
			"byteLength":177660,
			"uri":"Snowman.bin"
		}
	]
}
